<?xml version="1.0" encoding="UTF-8" standalone="no"?>
<!-- Created with Inkscape (http://www.inkscape.org/) -->

<svg
   width="11.836016mm"
   height="11.836016mm"
   viewBox="0 0 11.836016 11.836016"
   version="1.1"
   id="svg5"
   inkscape:export-filename="favicon.svg"
   inkscape:export-xdpi="107.29961"
   inkscape:export-ydpi="107.29961"
   sodipodi:docname="favicon.svg"
   inkscape:version="1.2.2 (b0a8486541, 2022-12-01)"
   xmlns:inkscape="http://www.inkscape.org/namespaces/inkscape"
   xmlns:sodipodi="http://sodipodi.sourceforge.net/DTD/sodipodi-0.dtd"
   xmlns="http://www.w3.org/2000/svg"
   xmlns:svg="http://www.w3.org/2000/svg">
  <sodipodi:namedview
     id="namedview7"
     pagecolor="#ffffff"
     bordercolor="#000000"
     borderopacity="0.25"
     inkscape:showpageshadow="2"
     inkscape:pageopacity="0.0"
     inkscape:pagecheckerboard="0"
     inkscape:deskcolor="#d1d1d1"
     inkscape:document-units="mm"
     showgrid="false"
     inkscape:zoom="5.8012346"
     inkscape:cx="-3.6199191"
     inkscape:cy="27.580336"
     inkscape:window-width="1920"
     inkscape:window-height="1011"
     inkscape:window-x="0"
     inkscape:window-y="0"
     inkscape:window-maximized="1"
     inkscape:current-layer="layer1" />
  <defs
     id="defs2" />
  <g
     inkscape:label="Layer 1"
     inkscape:groupmode="layer"
     id="layer1"
     transform="translate(-108.41618,-59.116657)">
    <g
       aria-label="{s}"
       id="text4885"
       style="font-size:10.4463px;-inkscape-font-specification:sans-serif;fill:#6b6b6b;stroke-width:0.125279">
      <path
         d="m 111.49802,69.589251 q -0.96106,-0.01045 -1.51471,-0.417852 -0.55366,-0.407405 -0.55366,-1.243109 v -1.535606 q 0,-0.532762 -0.33428,-0.752134 -0.32383,-0.229819 -0.94016,-0.229819 v -0.762579 q 0.61633,-0.01045 0.94016,-0.229819 0.33428,-0.219372 0.33428,-0.741687 v -1.546053 q 0,-0.835704 0.57455,-1.243109 0.57455,-0.407406 1.49382,-0.407406 v 0.752134 q -0.54321,0.01045 -0.8566,0.240265 -0.30294,0.229818 -0.30294,0.741687 v 1.504267 q 0,1.075969 -1.13864,1.274448 v 0.06268 q 1.13864,0.19848 1.13864,1.274449 v 1.535606 q 0,0.511869 0.30294,0.731241 0.30295,0.229818 0.8566,0.240265 z"
         style="fill:#ea6962;fill-opacity:1"
         id="path474" />
      <path
         d="m 116.36599,66.392684 q 0,0.814811 -0.60589,1.232663 -0.60588,0.417852 -1.62962,0.417852 -0.58499,0 -1.01329,-0.09402 -0.41785,-0.09402 -0.74169,-0.261157 v -0.835704 q 0.33428,0.167141 0.80437,0.313389 0.48053,0.135802 0.9715,0.135802 0.6999,0 1.01329,-0.219373 0.31339,-0.229818 0.31339,-0.605885 0,-0.208926 -0.11491,-0.376067 -0.11491,-0.167141 -0.41785,-0.334281 -0.29249,-0.167141 -0.84615,-0.376067 -0.54321,-0.208926 -0.92972,-0.417852 -0.38651,-0.208926 -0.59544,-0.501422 -0.20892,-0.292497 -0.20892,-0.752134 0,-0.710348 0.57454,-1.096862 0.58499,-0.386513 1.52516,-0.386513 0.51187,0 0.95061,0.104463 0.4492,0.09402 0.83571,0.271604 l -0.31339,0.731241 q -0.35517,-0.146248 -0.74169,-0.250711 -0.38651,-0.104463 -0.79392,-0.104463 -0.5641,0 -0.86704,0.188033 -0.2925,0.177587 -0.2925,0.490976 0,0.229819 0.13581,0.39696 0.1358,0.156694 0.44919,0.313389 0.32383,0.146248 0.85659,0.355174 0.53277,0.19848 0.90883,0.407406 0.37607,0.208926 0.57455,0.511868 0.19848,0.292497 0.19848,0.741688 z"
         style="fill:#89b482;fill-opacity:1"
         id="path476" />
      <path
         d="m 117.17035,68.837118 q 0.54321,-0.02089 0.84615,-0.250711 0.31339,-0.219373 0.31339,-0.731241 v -1.514714 q 0,-1.075969 1.13865,-1.274448 v -0.06268 q -1.13865,-0.19848 -1.13865,-1.274449 v -1.525159 q 0,-0.511869 -0.30294,-0.731241 -0.30294,-0.229819 -0.8566,-0.240265 v -0.752134 q 0.96106,0.01045 1.51472,0.417852 0.55365,0.407406 0.55365,1.24311 v 1.525159 q 0,0.532762 0.32384,0.76258 0.33428,0.219373 0.95061,0.219373 v 0.762579 q -0.61633,0.01045 -0.95061,0.229819 -0.32384,0.219372 -0.32384,0.741687 v 1.556499 q 0,0.825258 -0.57454,1.232663 -0.57455,0.417852 -1.49383,0.417852 z"
         style="fill:#ea6962;fill-opacity:1"
         id="path478" />
    </g>
  </g>
</svg>
