<?xml version="1.0" encoding="UTF-8" standalone="no"?>
<!-- Created with Inkscape (http://www.inkscape.org/) -->

<svg
   width="1200"
   height="630"
   viewBox="0 0 317.49999 166.6875"
   version="1.1"
   id="svg5"
   xml:space="preserve"
   inkscape:version="1.2.2 (b0a8486541, 2022-12-01)"
   sodipodi:docname="social.svg"
   xmlns:inkscape="http://www.inkscape.org/namespaces/inkscape"
   xmlns:sodipodi="http://sodipodi.sourceforge.net/DTD/sodipodi-0.dtd"
   xmlns="http://www.w3.org/2000/svg"
   xmlns:svg="http://www.w3.org/2000/svg"><sodipodi:namedview
     id="namedview7"
     pagecolor="#ffffff"
     bordercolor="#000000"
     borderopacity="0.25"
     inkscape:showpageshadow="2"
     inkscape:pageopacity="0.0"
     inkscape:pagecheckerboard="0"
     inkscape:deskcolor="#d1d1d1"
     inkscape:document-units="mm"
     showgrid="false"
     inkscape:zoom="0.72515432"
     inkscape:cx="511.61524"
     inkscape:cy="464.72867"
     inkscape:window-width="1920"
     inkscape:window-height="1011"
     inkscape:window-x="0"
     inkscape:window-y="0"
     inkscape:window-maximized="1"
     inkscape:current-layer="layer1" /><defs
     id="defs2"><rect
       x="82.579405"
       y="219.67307"
       width="1053.181"
       height="323.46563"
       id="rect9860" /><rect
       x="126.06153"
       y="291.98061"
       width="946.21023"
       height="238.40218"
       id="rect9854" /><rect
       x="2103.3508"
       y="303.99241"
       width="1029.4845"
       height="174.95198"
       id="rect9848" /></defs><g
     inkscape:label="Layer 1"
     inkscape:groupmode="layer"
     id="layer1"><rect
       style="fill:#292828;fill-opacity:1;stroke-width:0.754999"
       id="rect300"
       width="317.5"
       height="166.6875"
       x="0"
       y="0"
       sodipodi:insensitive="true" /><g
       id="g8280"
       transform="matrix(1.0588748,0,0,1.0588748,-9.3464814,48.19305)"><path
         d="m 48.90025,41.982583 q -1.933827,-0.0209 -3.04788,-0.840796 -1.114053,-0.819775 -1.114053,-2.501363 v -3.089922 q 0,-1.072014 -0.672636,-1.513431 -0.651615,-0.462438 -1.891789,-0.462438 v -1.534449 q 1.240174,-0.0209 1.891789,-0.462437 0.672636,-0.441417 0.672636,-1.492411 v -3.110943 q 0,-1.681591 1.156094,-2.501366 1.156091,-0.819774 3.005839,-0.819774 v 1.513431 q -1.093032,0.0209 -1.723629,0.483459 -0.609574,0.462437 -0.609574,1.49241 v 3.02686 q 0,2.165049 -2.291168,2.564425 v 0.126111 q 2.291168,0.399375 2.291168,2.564422 v 3.089922 q 0,1.029976 0.609574,1.471393 0.609576,0.462437 1.723629,0.483455 z"
         id="path5107"
         style="font-size:6.13372px;-inkscape-font-specification:sans-serif;fill:#ea6962;fill-opacity:1;stroke-width:0.624803" /><path
         d="m 64.160665,35.550502 q 0,1.63955 -1.21915,2.480346 -1.219153,0.840795 -3.279102,0.840795 -1.177112,0 -2.038929,-0.189167 -0.840792,-0.189167 -1.49241,-0.525496 v -1.681592 q 0.672636,0.33632 1.618532,0.630598 0.966914,0.273264 1.954848,0.273264 1.408331,0 2.038929,-0.441417 0.630594,-0.462438 0.630594,-1.21915 0,-0.4204 -0.231216,-0.756716 -0.231215,-0.336319 -0.840795,-0.672636 -0.588556,-0.336319 -1.702609,-0.756715 -1.093032,-0.4204 -1.870768,-0.840796 -0.777737,-0.4204 -1.198133,-1.008955 -0.420396,-0.588556 -0.420396,-1.513432 0,-1.429348 1.156091,-2.207084 1.177112,-0.777737 3.068901,-0.777737 1.029976,0 1.91281,0.210208 0.903855,0.189167 1.681588,0.546518 l -0.630594,1.471393 q -0.714678,-0.294271 -1.492411,-0.504479 -0.777736,-0.210209 -1.597511,-0.210209 -1.135074,0 -1.744651,0.378358 -0.588555,0.357337 -0.588555,0.987935 0,0.462438 0.273264,0.798754 0.273264,0.315312 0.903854,0.630597 0.651619,0.294271 1.72363,0.714674 1.072014,0.399379 1.82873,0.819775 0.756716,0.4204 1.156094,1.029976 0.399376,0.588556 0.399376,1.492411 z"
         id="path5109"
         style="font-size:6.13372px;-inkscape-font-specification:sans-serif;fill:#89b482;fill-opacity:1;stroke-width:0.624803" /><path
         d="m 70.655808,37.358212 q 0.420399,0 0.861816,-0.06306 0.441417,-0.0841 0.714674,-0.16816 v 1.408331 q -0.294271,0.147153 -0.840792,0.231216 -0.546517,0.105104 -1.050993,0.105104 -0.882838,0 -1.639553,-0.294271 -0.735695,-0.315313 -1.198133,-1.072011 -0.462434,-0.756716 -0.462434,-2.123009 v -6.558215 h -1.597512 v -0.882834 l 1.618529,-0.735695 0.735695,-2.396265 h 1.093035 v 2.585442 h 3.258079 v 1.429352 H 68.89014 V 35.3403 q 0,1.029973 0.483455,1.534449 0.50448,0.483459 1.282213,0.483459 z"
         id="path5111"
         style="font-size:6.13372px;-inkscape-font-specification:sans-serif;fill:#89b482;fill-opacity:1;stroke-width:0.624803" /><path
         d="m 83.898329,27.394789 v 11.266653 h -1.513428 l -0.273264,-1.492411 h -0.0841 q -0.546514,0.882834 -1.513428,1.303234 -0.966917,0.399378 -2.059949,0.399378 -2.038928,0 -3.068901,-0.966917 -1.029973,-0.987931 -1.029973,-3.13196 v -7.377977 h 1.870769 v 7.251859 q 0,2.690543 2.501362,2.690543 1.870769,0 2.585446,-1.050994 0.735695,-1.050993 0.735695,-3.026862 v -5.864546 z"
         id="path5113"
         style="font-size:6.13372px;-inkscape-font-specification:sans-serif;fill:#89b482;fill-opacity:1;stroke-width:0.624803" /><path
         d="m 91.465487,38.871643 q -2.101988,0 -3.363183,-1.450372 -1.261192,-1.471393 -1.261192,-4.372135 0,-2.900741 1.261192,-4.372134 1.282213,-1.492411 3.3842,-1.492411 1.303233,0 2.123008,0.483459 0.840796,0.483455 1.366293,1.177112 h 0.126111 q -0.0209,-0.273264 -0.0841,-0.798754 -0.04205,-0.546518 -0.04205,-0.861817 v -4.498252 h 1.849748 V 38.661442 H 95.333107 L 95.059843,37.14801 h -0.0841 q -0.504476,0.714678 -1.345271,1.219154 -0.840796,0.504479 -2.165047,0.504479 z m 0.294271,-1.534452 q 1.786688,0 2.501362,-0.966914 0.735699,-0.987934 0.735699,-2.963804 v -0.336319 q 0,-2.101987 -0.693657,-3.21604 -0.693657,-1.135074 -2.564425,-1.135074 -1.492411,0 -2.249126,1.198133 -0.735695,1.177112 -0.735695,3.174002 0,2.017907 0.735695,3.13196 0.756715,1.114053 2.270147,1.114053 z"
         id="path5115"
         style="font-size:6.13372px;-inkscape-font-specification:sans-serif;fill:#89b482;fill-opacity:1;stroke-width:0.624803" /><path
         d="m 104.75004,27.184591 q 1.45037,0 2.48034,0.630598 1.051,0.630594 1.59751,1.786689 0.56754,1.135073 0.56754,2.669522 v 1.114056 h -7.71429 q 0.0421,1.912807 0.96691,2.921762 0.9459,0.987935 2.62749,0.987935 1.07201,0 1.89179,-0.189167 0.84079,-0.210208 1.72363,-0.588556 v 1.618529 q -0.86182,0.378358 -1.70262,0.546517 -0.84079,0.189167 -1.99688,0.189167 -1.59751,0 -2.83769,-0.651618 -1.21915,-0.651615 -1.91281,-1.933828 -0.672632,-1.303233 -0.672632,-3.174001 0,-1.849748 0.609572,-3.173999 0.6306,-1.324254 1.74466,-2.038928 1.13507,-0.714678 2.62748,-0.714678 z m -0.0209,1.513432 q -1.32426,0 -2.10199,0.861816 -0.75672,0.840792 -0.90386,2.354224 h 5.73843 q -0.0209,-1.429352 -0.67264,-2.312185 -0.65161,-0.903855 -2.05994,-0.903855 z"
         id="path5117"
         style="font-size:6.13372px;-inkscape-font-specification:sans-serif;fill:#89b482;fill-opacity:1;stroke-width:0.624803" /><path
         d="m 117.67723,27.184591 q 2.01792,0 3.04789,0.987935 1.03,0.966914 1.03,3.152981 v 7.335935 h -1.82876 v -7.209817 q 0,-2.71156 -2.52236,-2.71156 -1.8708,0 -2.58545,1.050993 -0.71469,1.050994 -0.71469,3.02686 v 5.843524 H 112.2541 V 27.394789 h 1.49243 l 0.27313,1.534453 h 0.10521 q 0.54649,-0.882834 1.5134,-1.303234 0.96691,-0.441417 2.03893,-0.441417 z"
         id="path5119"
         style="font-size:6.13372px;-inkscape-font-specification:sans-serif;fill:#89b482;fill-opacity:1;stroke-width:0.624803" /><path
         d="m 129.00696,37.358212 q 0.42038,0 0.86181,-0.06306 0.44142,-0.0841 0.71468,-0.16816 v 1.408331 q -0.29437,0.147153 -0.8408,0.231216 -0.54652,0.105104 -1.051,0.105104 -0.88282,0 -1.63955,-0.294271 -0.7357,-0.315313 -1.19813,-1.072011 -0.46243,-0.75673 -0.46243,-2.123022 v -6.558202 h -1.5975 v -0.882834 l 1.61851,-0.735695 0.73569,-2.396265 h 1.09306 v 2.585442 h 3.25806 v 1.429352 H 127.2413 V 35.3403 q 0,1.029973 0.48344,1.534449 0.50448,0.483459 1.28222,0.483459 z"
         id="path5121"
         style="font-size:6.13372px;-inkscape-font-specification:sans-serif;fill:#89b482;fill-opacity:1;stroke-width:0.624803" /><path
         d="m 137.1837,27.184591 q 1.45035,0 2.48031,0.630598 1.05101,0.630594 1.59754,1.786689 0.56754,1.135073 0.56754,2.669522 v 1.114056 h -7.71431 q 0.0421,1.912807 0.96691,2.921762 0.9459,0.987935 2.6275,0.987935 1.07201,0 1.89177,-0.189167 0.8408,-0.210208 1.72365,-0.588556 v 1.618529 q -0.86181,0.378358 -1.70261,0.546517 -0.8408,0.189167 -1.99691,0.189167 -1.5975,0 -2.83768,-0.651618 -1.21913,-0.651615 -1.91281,-1.933828 -0.67264,-1.303233 -0.67264,-3.174001 0,-1.849748 0.60959,-3.173999 0.63059,-1.324254 1.74465,-2.038928 1.13507,-0.714678 2.6275,-0.714678 z m -0.0206,1.513432 q -1.32424,0 -2.10198,0.861816 -0.7567,0.840792 -0.90386,2.354224 h 5.73844 q -0.0206,-1.429352 -0.67263,-2.312185 -0.65164,-0.903855 -2.05997,-0.903855 z"
         id="path5123"
         style="font-size:6.13372px;-inkscape-font-specification:sans-serif;fill:#89b482;fill-opacity:1;stroke-width:0.624803" /><path
         d="m 150.1109,27.184591 q 2.01791,0 3.04788,0.987935 1.02997,0.966914 1.02997,3.152981 v 7.335935 h -1.82872 v -7.209817 q 0,-2.71156 -2.5224,-2.71156 -1.87076,0 -2.58545,1.050993 -0.71465,1.050994 -0.71465,3.02686 v 5.843524 h -1.84976 V 27.394789 h 1.49239 l 0.27313,1.534453 h 0.10521 q 0.54653,-0.882834 1.51344,-1.303234 0.96691,-0.441417 2.03892,-0.441417 z"
         id="path5125"
         style="font-size:6.13372px;-inkscape-font-specification:sans-serif;fill:#89b482;fill-opacity:1;stroke-width:0.624803" /><path
         d="m 159.52781,27.373772 q 0,0.840796 -0.10521,1.576491 h 0.12612 q 0.54652,-0.861817 1.47138,-1.303234 0.94591,-0.441417 2.03893,-0.441417 2.05997,0 3.08993,0.987935 1.02997,0.966914 1.02997,3.13196 v 7.335935 h -1.82872 v -7.209817 q 0,-2.71156 -2.5224,-2.71156 -1.89177,0 -2.60646,1.072011 -0.69364,1.050993 -0.69364,3.026862 v 5.822504 h -1.84976 V 22.686339 h 1.84976 z"
         id="path5127"
         style="font-size:6.13372px;-inkscape-font-specification:sans-serif;fill:#89b482;fill-opacity:1;stroke-width:0.624803" /><path
         d="m 175.01945,27.184591 q 1.45035,0 2.48035,0.630598 1.05097,0.630594 1.5975,1.786689 0.56754,1.135073 0.56754,2.669522 v 1.114056 h -7.71431 q 0.0422,1.912807 0.96694,2.921762 0.94587,0.987935 2.62747,0.987935 1.07201,0 1.89177,-0.189167 0.8408,-0.210208 1.72365,-0.588556 v 1.618529 q -0.86181,0.378358 -1.70261,0.546517 -0.8408,0.189167 -1.99687,0.189167 -1.59754,0 -2.83771,-0.651618 -1.21914,-0.651615 -1.91282,-1.933828 -0.6726,-1.303233 -0.6726,-3.174001 0,-1.849748 0.60955,-3.173999 0.63059,-1.324254 1.74465,-2.038928 1.13507,-0.714678 2.6275,-0.714678 z m -0.0206,1.513432 q -1.32424,0 -2.10198,0.861816 -0.7567,0.840792 -0.90385,2.354224 h 5.73844 q -0.0206,-1.429352 -0.67264,-2.312185 -0.65164,-0.903855 -2.05997,-0.903855 z"
         id="path5129"
         style="font-size:6.13372px;-inkscape-font-specification:sans-serif;fill:#89b482;fill-opacity:1;stroke-width:0.624803" /><path
         d="m 187.77849,27.184591 q 0.31528,0 0.67264,0.04205 0.37836,0.0209 0.65163,0.0841 l -0.23132,1.702609 q -0.27313,-0.06306 -0.60958,-0.105105 -0.31528,-0.04205 -0.60959,-0.04205 -0.8618,0 -1.61854,0.483455 -0.7567,0.462438 -1.21913,1.324254 -0.44143,0.840796 -0.44143,1.975866 v 6.011684 h -1.84975 V 27.3948 h 1.51343 l 0.21008,2.059949 h 0.084 q 0.54652,-0.924876 1.40833,-1.597511 0.86181,-0.672636 2.03892,-0.672636 z"
         id="path5131"
         style="font-size:6.13372px;-inkscape-font-specification:sans-serif;fill:#89b482;fill-opacity:1;stroke-width:0.624803" /><path
         d="m 198.47763,38.661442 h -8.2398 v -1.21915 l 6.05372,-8.618151 h -5.69639 v -1.429352 h 7.73531 v 1.387314 l -5.96965,8.449987 h 6.11681 z"
         id="path5133"
         style="font-size:6.13372px;-inkscape-font-specification:sans-serif;fill:#89b482;fill-opacity:1;stroke-width:0.624803" /><path
         d="m 205.43516,40.469151 q 1.09306,-0.04205 1.70261,-0.504476 0.63062,-0.441417 0.63062,-1.47139 v -3.047883 q 0,-2.165047 2.29115,-2.564425 v -0.126112 q -2.29115,-0.399378 -2.29115,-2.564425 v -3.068901 q 0,-1.029973 -0.60958,-1.47139 -0.60958,-0.462437 -1.72365,-0.483458 v -1.513432 q 1.93386,0.02091 3.04789,0.840796 1.11406,0.819775 1.11406,2.501366 v 3.068901 q 0,1.072015 0.6516,1.534449 0.67264,0.44142 1.91281,0.44142 v 1.534449 q -1.24017,0.0209 -1.91281,0.462438 -0.6516,0.441417 -0.6516,1.49241 v 3.131961 q 0,1.66057 -1.15611,2.480345 -1.15608,0.840795 -3.00584,0.840795 z"
         id="path5135"
         style="font-size:6.13372px;-inkscape-font-specification:sans-serif;fill:#ea6962;fill-opacity:1;stroke-width:0.624803" /><path
         d="m 216.11326,23.653253 -0.42038,5.423128 h -1.15611 l -0.42039,-5.423128 z"
         id="path5137"
         style="font-size:6.13372px;-inkscape-font-specification:sans-serif;fill:#d4be98;fill-opacity:1;stroke-width:0.624803" /><path
         d="m 225.97157,35.550502 q 0,1.63955 -1.21917,2.480346 -1.21913,0.840795 -3.2791,0.840795 -1.17709,0 -2.03893,-0.189167 -0.84079,-0.189167 -1.49239,-0.525496 v -1.681592 q 0.67264,0.33632 1.61854,0.630598 0.96691,0.273264 1.95483,0.273264 1.40833,0 2.03892,-0.441417 0.63059,-0.462438 0.63059,-1.21915 0,-0.4204 -0.23132,-0.756716 -0.23131,-0.336319 -0.84079,-0.672636 -0.58855,-0.336319 -1.70261,-0.756715 -1.09302,-0.4204 -1.87076,-0.840796 -0.77775,-0.4204 -1.19813,-1.008955 -0.42038,-0.588556 -0.42038,-1.513432 0,-1.429348 1.15607,-2.207084 1.17712,-0.777737 3.0689,-0.777737 1.03,0 1.91281,0.210208 0.90385,0.189167 1.6816,0.546518 l -0.63059,1.471393 q -0.71469,-0.294271 -1.49243,-0.504479 -0.77771,-0.210209 -1.59751,-0.210209 -1.13507,0 -1.74465,0.378358 -0.58854,0.357337 -0.58854,0.987935 0,0.462438 0.27313,0.798754 0.27312,0.315312 0.90385,0.630597 0.6516,0.294271 1.72361,0.714674 1.07202,0.399379 1.82875,0.819775 0.7567,0.4204 1.15608,1.029976 0.39938,0.588556 0.39938,1.492411 z"
         id="path5139"
         style="font-size:6.13372px;-inkscape-font-specification:sans-serif;fill:#d4be98;fill-opacity:1;stroke-width:0.624803" /><path
         d="m 238.70963,23.653253 q 2.81667,0 4.24601,0.840795 1.45038,0.819775 1.45038,2.879724 0,1.324251 -0.73569,2.207085 -0.7357,0.861816 -2.12303,1.114052 v 0.105105 q 0.94591,0.147152 1.70261,0.546517 0.77774,0.399376 1.21917,1.135074 0.44139,0.735695 0.44139,1.912807 0,2.038928 -1.4083,3.15298 -1.38733,1.114053 -3.80462,1.114053 h -5.27598 V 23.653256 Z m 0.37833,6.390041 q 1.93386,0 2.64851,-0.609576 0.71469,-0.630594 0.71469,-1.849748 0,-1.240174 -0.88285,-1.765671 -0.86181,-0.546514 -2.77462,-0.546514 h -2.48035 v 4.771509 z m -2.77462,1.576491 v 5.444149 h 3.02688 q 1.99688,0 2.77462,-0.777737 0.77774,-0.777736 0.77774,-2.038928 0,-1.177112 -0.81979,-1.891789 -0.79875,-0.735695 -2.87972,-0.735695 z"
         id="path5141"
         style="font-size:6.13372px;-inkscape-font-specification:sans-serif;fill:#d4be98;fill-opacity:1;stroke-width:0.624803" /><path
         d="m 249.682,38.661442 h -1.84976 V 22.686339 h 1.84976 z"
         id="path5143"
         style="font-size:6.13372px;-inkscape-font-specification:sans-serif;fill:#d4be98;fill-opacity:1;stroke-width:0.624803" /><path
         d="m 263.05061,33.007098 q 0,2.795641 -1.42934,4.330093 -1.40833,1.534452 -3.82562,1.534452 -1.4924,0 -2.66952,-0.672639 -1.15611,-0.693653 -1.82875,-1.996887 -0.67264,-1.32425 -0.67264,-3.195019 0,-2.795644 1.40833,-4.309075 1.40834,-1.513432 3.82563,-1.513432 1.53445,0 2.69056,0.693657 1.17712,0.672636 1.82872,1.975869 0.67263,1.282213 0.67263,3.152981 z m -8.51306,0 q 0,1.996887 0.77775,3.173999 0.79875,1.156094 2.52239,1.156094 1.70261,0 2.50136,-1.156094 0.79875,-1.177112 0.79875,-3.173999 0,-1.99689 -0.79875,-3.131963 -0.79875,-1.13507 -2.5224,-1.13507 -1.72361,0 -2.50135,1.13507 -0.77775,1.135073 -0.77775,3.131963 z"
         id="path5145"
         style="font-size:6.13372px;-inkscape-font-specification:sans-serif;fill:#d4be98;fill-opacity:1;stroke-width:0.624803" /><path
         d="m 269.96614,27.184591 q 1.11406,0 1.99691,0.4204 0.90385,0.420396 1.53445,1.282212 h 0.1052 l 0.25223,-1.492414 h 1.47138 v 11.455833 q 0,2.417287 -1.24017,3.636437 -1.21913,1.219153 -3.80459,1.219153 -2.48034,0 -4.05684,-0.714674 v -1.702612 q 1.66056,0.882837 4.16195,0.882837 1.45035,0 2.27014,-0.861816 0.8408,-0.840796 0.8408,-2.312186 v -0.441417 q 0,-0.252256 0.0206,-0.714677 0.0206,-0.483455 0.0421,-0.672636 h -0.084 q -1.13507,1.702612 -3.48927,1.702612 -2.18608,0 -3.42625,-1.534452 -1.21917,-1.534452 -1.21917,-4.288055 0,-2.690543 1.21917,-4.267033 1.24017,-1.597512 3.40521,-1.597512 z m 0.25222,1.555474 q -1.40833,0 -2.18608,1.13507 -0.77774,1.114056 -0.77774,3.195022 0,2.080967 0.75674,3.19502 0.77771,1.093035 2.2491,1.093035 1.70264,0 2.48035,-0.903855 0.77774,-0.924875 0.77774,-2.963804 v -0.441417 q 0,-2.312185 -0.79875,-3.30012 -0.79875,-1.008951 -2.50136,-1.008951 z"
         id="path5147"
         style="font-size:6.13372px;-inkscape-font-specification:sans-serif;fill:#d4be98;fill-opacity:1;stroke-width:0.624803" /></g><text
       xml:space="preserve"
       transform="scale(0.26458333)"
       id="text9846"
       style="fill:#d4be98;font-size:96px;-inkscape-font-specification:sans-serif;font-family:sans-serif;stroke-width:2.85354331;fill-opacity:1;font-weight:normal;font-style:normal;font-stretch:normal;font-variant:normal;white-space:pre;shape-inside:url(#rect9848)" /><text
       xml:space="preserve"
       transform="scale(0.26458333)"
       id="text9852"
       style="fill:#d4be98;font-size:96px;-inkscape-font-specification:sans-serif;font-family:sans-serif;stroke-width:2.85354331;fill-opacity:1;font-weight:normal;font-style:normal;font-stretch:normal;font-variant:normal;white-space:pre;shape-inside:url(#rect9854)" /></g></svg>
